<?xml version="1.0" encoding="utf-8"?>
<!-- Generator: Adobe Illustrator 24.0.1, SVG Export Plug-In . SVG Version: 6.00 Build 0)  -->
<svg version="1.1" id="Layer_1" xmlns="http://www.w3.org/2000/svg" xmlns:xlink="http://www.w3.org/1999/xlink" x="0px" y="0px"
	 viewBox="0 0 800 800" style="enable-background:new 0 0 800 800;" xml:space="preserve">
<style type="text/css">
	.st0{fill:#603913;}
	.st1{fill:#E0DAC6;}
	.st2{fill:#F9F3D9;}
	.st3{fill:#F1B21D;}
	.st4{fill:#B36929;}
	.st5{fill:#FFE298;}
	.st6{fill:#D2976D;}
</style>
<rect class="st0" width="800" height="800"/>
<ellipse cx="400" cy="711" rx="369" ry="63"/>
<g>
	<g>
		<path class="st1" d="M738.4,344H59.5c0,0,20,187.7,55.4,239.5C154.6,641.6,249,725,398.9,725c150,0,244.4-83.4,284-141.5
			C718.4,531.7,738.4,344,738.4,344z"/>
		<path class="st2" d="M738.4,344c0,64.5-151.9,116.8-339.4,116.8c-187.4,0-339.4-52.3-339.4-116.8c0-64.5,152-116.8,339.4-116.8
			C586.4,227.2,738.4,279.4,738.4,344z"/>
		<path class="st1" d="M727.2,342c0,58.7-146.9,106.3-328.3,106.3c-181.3,0-328.2-47.5-328.2-106.3c0-58.7,146.9-106.2,328.2-106.2
			C580.2,235.8,727.2,283.3,727.2,342z"/>
		<path class="st3" d="M398.9,272.9c-161.7,0-296,37.8-323.1,87.7c27.1,49.9,161.4,87.7,323.1,87.7c161.8,0,296-37.8,323.2-87.7
			C695,310.7,560.7,272.9,398.9,272.9z"/>
		<path class="st4" d="M398.9,553.1c149.2,0,275.5-36.5,321-87.2c5.3-27.1,9.5-53.9,12.5-75.4c-29.5,54.2-167.5,95.2-333.5,95.2
			c-165.9,0-304-41-333.5-95.2c3.1,21.6,7.3,48.4,12.5,75.4C123.5,516.6,249.8,553.1,398.9,553.1z"/>
		<path class="st5" d="M575.5,409.1l-2.7-27.9l8.6-0.7c45.8-3.6,63-20.1,63.8-33.1c0.9-14.4-16.2-28.2-40.6-32.8
			c-7-1.3-13.7-1.9-20.5-1.9c-22.3,0-41.2,7.1-63.2,15.2c-29,10.8-61.9,23-110.7,23c-28.9,0-59.9-9.2-92.8-18.9
			c-33.3-9.8-67.6-20-99-20c-21.6,0-39.8,4.8-55.6,14.7c-8.8,5.5-23.1,16.1-19.5,24.4c6.4,14.9,47.2,29.4,82.4,29.4
			c4.3,0,8.3-0.2,11.9-0.7l8.2-1l4.1,27.7l-8.7,1.1c-4.5,0.6-9.5,0.8-14.8,0.8c-37.4,0-96.3-14.5-110.1-46.6
			c-5-11.6-7.6-34.6,30.4-58.5c20.5-12.9,43.9-19.2,71.4-19.2c36.3,0,74.2,11.2,107.7,21.1c30.7,9.1,59.8,17.7,84.2,17.7
			c43.4,0,73.5-11.2,100.1-21.1c22.6-8.4,46-17.1,73.8-17.1c8.6,0,17.2,0.8,26,2.5c39.6,7.4,66,32.9,64.1,62
			c-1.6,25.3-26.2,54.2-90.5,59.2L575.5,409.1z"/>
		<path class="st5" d="M486.2,406.1c-25.7,0-52.2-6.1-78.6-18.2c-57.2-26.1-103.9-31.6-133-31.6c-36.2,0-57,7.9-64.3,11.3l-7.1,3.3
			l-14.1-24.5l8.3-3.9c9.7-4.6,38.3-15.6,86-14.1c44.1,1.4,90.1,12.9,136.6,34.2c22.5,10.3,44.7,15.5,66,15.5
			c37.3,0,69.6-16.5,91-46.4l4.5-6.3l24.9,14.7l-5.4,7.5c-20.9,29.2-50.2,48.4-84.8,55.5C506.6,405.1,496.5,406.1,486.2,406.1z"/>
		<path class="st5" d="M410.9,424l-7.1-3.3c-18.9-9-39-13.5-59.7-13.5c-34.8,0-59.6,13-59.8,13.1l-6.8,3.6l-15.7-23.6l8.2-4.4
			c3.2-1.7,32.6-16.9,73.9-16.9c25.1,0,49.6,5.6,72.8,16.6l8.3,3.9L410.9,424z"/>
		<path class="st5" d="M290.3,166.2l-13.8-25.7l7.5-4c26.3-14.1,38.9-63.7,39-64.2l2-8.3l28.4,6.8l-2,8.2
			c-0.6,2.5-15.4,62.6-53.6,83.1L290.3,166.2z"/>
		<path class="st5" d="M412.7,183.8l-24.2-16.1l4.7-7.1c0.2-0.3,18.6-28.3,22.7-54.9l1.3-8.4l28.9,4.5l-1.3,8.4
			c-5.2,33.5-26.4,65.2-27.3,66.6L412.7,183.8z"/>
		<path class="st5" d="M367.7,173.1l-24.2-16.1l4.7-7.1c0.2-0.3,18.6-28.3,22.7-54.9l1.3-8.4l28.9,4.5l-1.3,8.4
			c-5.2,33.5-26.4,65.2-27.3,66.6L367.7,173.1z"/>
		<polygon class="st6" points="738.4,158.7 279.2,72.6 276.8,84.8 733.5,193.9 		"/>
		<polygon class="st6" points="712.2,261.7 275,97.3 270.5,108.8 701.4,295.5 		"/>
		<path class="st5" d="M321.5,163.9c-8.9,0-17.4-4.3-23.9-12c-17.2-20.6-8.6-60.4,0.9-80.6c9.8-20.8,21.1-25.2,28.9-25.2
			c8.1,0,15,3.1,19.5,8.8c7.1,8.9,5.4,20.5,4.7,23.9l-24.4-0.9c-0.3,0.7-2,5.3-2.4,6.1c-8.7,19-9.9,42.9-4.7,49.2
			c0.9,1.1,1.6,1.5,1.8,1.6c-0.4-0.1,0.8,0.6,2.4-2.7l26.6,10.6c-5.8,12.2-15,19.7-25.9,21C323.8,163.9,322.6,163.9,321.5,163.9z"/>
		<path class="st5" d="M370.4,181.2c-9.2,0-17.9-4.6-23.9-12.7c-23.3-31.3-10.3-73.3,3.4-92.5c9.8-13.7,19.2-16.5,25.4-16.5
			c2.1,0,4.2,0.3,6.2,1c7.5,2.4,20.1,8.2,17.4,34.7l-26.5-5c-6.7,14-12.9,47-2,62l25.6,11.2c-4.5,10.1-12.7,16.6-22.6,17.7
			C372.3,181.1,371.3,181.2,370.4,181.2z"/>
		<path class="st5" d="M415.4,307.1c8.6-23.8-13.4-63-21.3-82.8c-14.4-36.2-12.1-132,14.8-150.8c7.8-5.4,16.9-6.4,24.3-2.8
			c7.9,3.9,16,17.3,13.1,33.3L421,99.2c-7.3,19.9-11.8,91.6,2.1,122c9.7,21.2,29.1,56,18.2,91.2
			C434.2,335.4,409.3,324.1,415.4,307.1z"/>
	</g>
</g>
</svg>
